# xmcd
#
# Track frame offsets:
#	150
#	19673
#	35495
#	52108
#	75715
#	97718
#	113490
#	126485
#	148088
#	150833
#	169313
#	199320
#	220368
#	243733
#	263590
#
# Disc length: 3828 seconds
#
# Revision: 0
# Processed by: cddbd v1.5.1PL2 Copyright (c) Steve Scherf et al.
# Submitted via: EasyCDDAExtractor 9.0.0.1
#
DISCID=ce0ef20f
DTITLE=Blues for Two - On the Radio
DYEAR=1900
DGENRE=Blues
TTITLE0=Do you
TTITLE1=Into the light
TTITLE2=Ain't ready
TTITLE3=Your eyes
TTITLE4=Blues for two
TTITLE5=Don't get nervous at night
TTITLE6=Show you the way
TTITLE7=Don't jump in the water
TTITLE8=Intro
TTITLE9=On the radio
TTITLE10=Cry baby
TTITLE11=Peace of mind
TTITLE12=Little sisters
TTITLE13=Strange feelings
TTITLE14=Sweet memories
EXTD=
EXTT0=
EXTT1=
EXTT2=
EXTT3=
EXTT4=
EXTT5=
EXTT6=
EXTT7=
EXTT8=
EXTT9=
EXTT10=
EXTT11=
EXTT12=
EXTT13=
EXTT14=
PLAYORDER=
